<?xml version="1.0" encoding="utf-8"?>
<!-- Generator: Adobe Illustrator 27.5.0, SVG Export Plug-In . SVG Version: 6.00 Build 0)  -->
<svg version="1.1" xmlns="http://www.w3.org/2000/svg" xmlns:xlink="http://www.w3.org/1999/xlink" x="0px" y="0px"
	 viewBox="0 0 500 500" style="enable-background:new 0 0 500 500;" xml:space="preserve">
<g id="BACKGROUND">
	<rect style="fill:#FFBD37;" width="500" height="500"/>
	<polygon style="fill:#66308D;" points="341.438,499.933 499.393,362.25 499.393,500.777 387.051,500.777 	"/>
</g>
<g id="OBJECTS">
	<g>
		<defs>
			<rect id="SVGID_1_" width="500" height="500"/>
		</defs>
		<clipPath id="SVGID_00000101796844123162416190000011231861055885486977_">
			<use xlink:href="#SVGID_1_"  style="overflow:visible;"/>
		</clipPath>
		<g style="clip-path:url(#SVGID_00000101796844123162416190000011231861055885486977_);">
			<g>
				<polygon style="fill:#FFFFFF;" points="-4.036,102.089 425.061,97.021 420.556,503.593 -2.909,501.341 				"/>
				<g>
					<polygon style="fill:#321D73;" points="-6.57,13.679 11.169,5.232 99.86,60.137 60.16,61.826 60.16,92.234 -7.414,86.322 					
						"/>
					<polygon style="fill:#321D73;" points="106.617,91.39 105.773,67.739 200.377,64.36 199.532,93.079 					"/>
				</g>
				<polygon style="fill:#FF4F4D;" points="-7.414,107.439 437.731,112.507 438.576,83.788 -7.414,86.322 				"/>
			</g>
			<g>
				<polygon style="fill:#D6D6D6;" points="164.337,182.333 269.64,182.333 268.08,304.017 166.677,304.017 				"/>
				<polygon style="fill:#DFEFF4;" points="173.91,193.396 260.067,193.396 258.791,292.955 175.825,292.955 				"/>
			</g>
			<g>
				<polygon style="fill:#D6D6D6;" points="289.913,181.489 295.825,435.737 392.964,435.737 393.808,181.489 				"/>
				<polygon style="fill:#DFEFF4;" points="299.486,193.314 301.175,286.792 384.798,288.2 386.206,191.062 				"/>
			</g>
			<g>
				<polygon style="fill:#D6D6D6;" points="-4.036,183.178 73.675,183.178 65.228,433.203 -4.036,435.737 				"/>
				<polygon style="fill:#DFEFF4;" points="-4.036,193.314 -2.346,286.792 59.315,288.2 60.723,191.062 				"/>
			</g>
			<g>
				<g>
					<polygon style="fill:#D6D6D6;" points="251.829,456.145 277.524,455.227 277.524,468.075 245.405,468.075 245.405,456.145 
											"/>
					<polygon style="fill:#D6D6D6;" points="234.393,473.581 260.088,472.663 260.088,485.511 227.97,485.511 227.97,473.581 					
						"/>
					<polygon style="fill:#D6D6D6;" points="270.825,472.204 289.913,471.287 289.913,484.134 266.053,484.134 266.053,472.204 
											"/>
				</g>
				<g>
					<polygon style="fill:#D6D6D6;" points="34.892,455.321 60.299,454.414 60.299,467.117 28.54,467.117 28.54,455.321 					"/>
					<polygon style="fill:#D6D6D6;" points="53.675,471.201 72.549,470.293 72.549,482.997 48.956,482.997 48.956,471.201 					"/>
				</g>
				<g>
					<polygon style="fill:#D6D6D6;" points="135.968,365.228 166.547,364.136 166.547,379.425 128.323,379.425 128.323,365.228 
											"/>
					<polygon style="fill:#D6D6D6;" points="151.45,384.707 174.166,383.615 174.166,398.904 145.771,398.904 145.771,384.707 					
						"/>
				</g>
				<g>
					<polygon style="fill:#D6D6D6;" points="128.414,139.468 153.638,138.567 153.638,151.179 122.108,151.179 122.108,139.468 
											"/>
					<polygon style="fill:#D6D6D6;" points="109.439,157.513 134.663,156.613 134.663,169.225 103.133,169.225 103.133,157.513 
											"/>
					<polygon style="fill:#D6D6D6;" points="98.521,142.459 117.259,141.558 117.259,154.17 93.836,154.17 93.836,142.459 					"/>
				</g>
				<g>
					<polygon style="fill:#D6D6D6;" points="342.929,149.199 365.892,148.378 365.892,159.86 337.188,159.86 337.188,149.199 					
						"/>
					<polygon style="fill:#D6D6D6;" points="377.245,148.712 400.208,147.891 400.208,159.373 371.504,159.373 371.504,148.712 
											"/>
					<polygon style="fill:#D6D6D6;" points="363.077,135.007 380.135,134.187 380.135,145.668 358.812,145.668 358.812,135.007 
											"/>
				</g>
			</g>
		</g>
	</g>
	<g>
		<g>
			<defs>
				
					<rect id="SVGID_00000007408819937532921200000012692541344049624248_" x="-0.094" y="415.746" width="453.798" height="85.594"/>
			</defs>
			<clipPath id="SVGID_00000176758365550238445310000000388665960802427539_">
				<use xlink:href="#SVGID_00000007408819937532921200000012692541344049624248_"  style="overflow:visible;"/>
			</clipPath>
			<g style="clip-path:url(#SVGID_00000176758365550238445310000000388665960802427539_);">
				<path style="fill:#FF4F4D;" d="M39.463,468.515c-2.139,0-4.347-0.059-6.632-0.181c-47.2-2.516-75.804-32.796-76.088-33.102
					l0.733-0.68c0.281,0.303,28.626,30.289,75.408,32.783c15.748,0.837,37.89-0.978,53.926-14.401
					c9.557-7.999,12.428-16.427,12.456-16.511l0.949,0.314C100.105,437.07,89.092,468.515,39.463,468.515z"/>
				<polygon style="fill:#DC2B7C;" points="93.831,444.466 114.783,474.311 98.129,473.185 95.443,485.573 79.863,457.98 				"/>
				<polygon style="fill:#5F377C;" points="70.193,461.359 73.417,482.194 64.821,492.894 54.614,485.01 51.928,465.864 				"/>
				<path style="fill:#FFCF00;" d="M37.96,466.427l-1.612,26.467l-10.207-9.01l-9.67,8.447l3.76-27.593
					C20.232,464.738,32.588,466.427,37.96,466.427z"/>
				<path style="fill:#FF4F4D;" d="M4.653,460.233l-7.521,20.836l-15.579,3.942l-4.298-13.515l9.133-18.583
					C-13.613,452.912,1.43,458.543,4.653,460.233z"/>
			</g>
			<g style="clip-path:url(#SVGID_00000176758365550238445310000000388665960802427539_);">
				<path style="fill:#FF4F4D;" d="M217.695,468.515c-49.637,0-60.642-31.445-60.752-31.776l0.949-0.314
					c0.113,0.339,11.889,33.826,66.382,30.912c46.8-2.495,75.126-32.48,75.408-32.783l0.732,0.68
					c-0.283,0.306-28.887,30.586-76.087,33.102C222.046,468.456,219.832,468.515,217.695,468.515z"/>
				<polygon style="fill:#FF4F4D;" points="163.327,444.466 142.375,474.311 159.029,473.185 161.715,485.573 177.295,457.98 				
					"/>
				<polygon style="fill:#FFBD37;" points="186.964,461.359 183.741,482.194 192.337,492.894 202.544,485.01 205.23,465.864 				"/>
				<path style="fill:#5F377C;" d="M219.198,466.427l1.612,26.467l10.207-9.01l9.67,8.447l-3.761-27.593
					C236.926,464.738,224.57,466.427,219.198,466.427z"/>
				<path style="fill:#DC2B7C;" d="M252.505,460.233l7.521,20.836l15.579,3.942l4.298-13.515l-9.133-18.583
					C270.77,452.912,255.728,458.543,252.505,460.233z"/>
			</g>
			<g style="clip-path:url(#SVGID_00000176758365550238445310000000388665960802427539_);">
				<path style="fill:#FF4F4D;" d="M360.165,468.515c-49.638,0-60.644-31.445-60.753-31.776l0.949-0.314
					c0.112,0.338,11.87,33.826,66.383,30.912c46.781-2.494,75.127-32.48,75.408-32.783l0.732,0.68
					c-0.283,0.306-28.888,30.586-76.088,33.102C364.515,468.456,362.301,468.515,360.165,468.515z"/>
				<polygon style="fill:#321D73;" points="305.796,444.466 284.845,474.311 301.498,473.185 304.184,485.573 319.764,457.98 				
					"/>
				<polygon style="fill:#DC2B7C;" points="329.434,461.359 326.21,482.194 334.806,492.894 345.013,485.01 347.699,465.864 				"/>
				<path style="fill:#FFBD37;" d="M361.667,466.427l1.612,26.467l10.207-9.01l9.67,8.447l-3.761-27.593
					C379.395,464.738,367.039,466.427,361.667,466.427z"/>
				<path style="fill:#FF4F4D;" d="M394.974,460.233l7.521,20.836l15.579,3.942l4.298-13.515l-9.133-18.583
					C413.24,452.912,398.198,458.543,394.974,460.233z"/>
			</g>
		</g>
	</g>
	<g>
		<g>
			<path style="fill:#543865;" d="M187.424,367.755c-0.515,0-0.952-0.395-0.996-0.916c-2.777-33.055-13.109-80.204-13.213-80.677
				c-0.119-0.539,0.222-1.072,0.761-1.191c0.54-0.118,1.073,0.223,1.192,0.762c0.105,0.474,10.464,47.75,13.253,80.939
				c0.046,0.551-0.362,1.034-0.913,1.08C187.48,367.754,187.452,367.755,187.424,367.755z"/>
		</g>
		<g>
			<path style="fill:#543865;" d="M192.492,367.755c-0.529,0-0.971-0.416-0.997-0.95l-3.941-79.4
				c-0.028-0.552,0.397-1.022,0.949-1.049c0.546-0.028,1.021,0.397,1.048,0.949l3.941,79.4c0.028,0.552-0.397,1.021-0.949,1.049
				C192.525,367.755,192.509,367.755,192.492,367.755z"/>
		</g>
		<path style="fill:#321D73;" d="M184.891,252.16l8.447,10.699l-3.097-14.923c11.262-0.563,21.962,7.602,26.467,19.709
			c4.505,12.107,2.534,25.34,1.689,26.748c-5.35,0.563-14.923-0.282-14.923-0.282c1.126-3.097,1.971-11.826,1.971-11.826
			l-4.786,11.544c-10.699-0.845-19.709-11.544-23.37-16.33C173.628,272.714,171.939,258.355,184.891,252.16z"/>
		<g>
			<path style="fill:#321D73;" d="M181.795,381.833c-0.032,0-0.066-0.002-0.098-0.005c-0.55-0.054-0.952-0.543-0.898-1.093
				l11.544-117.974c0.054-0.549,0.547-0.944,1.092-0.897c0.55,0.054,0.952,0.543,0.898,1.093l-11.544,117.974
				C182.738,381.448,182.303,381.833,181.795,381.833z"/>
		</g>
		<g>
			<path style="fill:#321D73;" d="M182.637,369.445c-0.471,0-0.89-0.334-0.981-0.813c-7.485-39.364-24.495-69.782-24.665-70.085
				c-0.272-0.481-0.102-1.091,0.379-1.363c0.482-0.268,1.092-0.101,1.362,0.379c0.173,0.306,17.344,31.012,24.889,70.696
				c0.103,0.542-0.253,1.066-0.795,1.169C182.762,369.439,182.699,369.445,182.637,369.445z"/>
		</g>
		<path style="fill:#66308D;" d="M178.79,287.731c0,0-15.767,20.648,4.13,39.418c1.877-6.757,5.631-14.266,5.631-14.266
			l-0.751,21.398c0,0,11.262,13.139,25.528,9.761c0,0,7.884-6.382,4.88-22.9c-4.129-3.754-11.262-5.256-11.262-5.256l10.887-2.253
			c-1.126-17.644-10.512-31.159-27.03-31.159C190.804,282.475,182.545,283.977,178.79,287.731z"/>
		<path style="fill:#321D73;" d="M160.395,297.21c0,0,6.476,5.631,2.816,16.612c-3.66,10.981-8.447,19.991-18.301,25.059
			c-9.854,5.068-22.243,5.631-34.069-2.534c0.563-18.583,12.389-29.845,12.389-29.845l14.078,6.757l-9.855-11.544
			C127.453,301.715,152.23,277.219,160.395,297.21z"/>
		<path style="fill:#66308D;" d="M175.318,291.016c0,0-26.185,13.233-34.913-11.262c9.573-1.689,12.67-4.786,12.67-4.786
			l-15.767,0.281c0,0-12.389-12.107-5.068-26.467c16.33-12.107,33.506,1.126,33.506,1.126l0.563,17.738l2.816-14.078
			c0,0,7.32,5.913,9.291,11.544c-3.379,10.981-3.379,10.981-3.379,10.981l5.631-7.602
			C185.173,274.685,180.667,287.355,175.318,291.016z"/>
		<path style="fill:#FF4F4D;" d="M169.968,363.376h38.855v39.418c0,0,4.505,28.719-18.02,28.719
			c-23.088,0-20.272-29.845-20.272-29.845L169.968,363.376z"/>
	</g>
	<g>
		<g>
			<g>
				<path style="fill:#FAB6A4;" d="M72.267,290.734c0,0,9.573,41.315,10.418,51.807c0.845,10.492-10.981,80.141-10.981,80.141
					l7.321,5.723l-17.175-0.318l-1.126-66.769l-20.272-64.225L72.267,290.734z"/>
				<path style="fill:#FFD1BF;" d="M25.721,294.64c0,0-1.633,19.068,6.972,35.887c8.884,17.363,9.729,22.431,9.729,22.431
					s-15.094,71.389-13.979,76.548c9.222,1.483,14.617,0.836,14.617,0.836l-5.558-6.369c0,0,21.763-35.343,31.268-73.334
					c-4.368-41.969-14.585-55.646-14.585-55.646L25.721,294.64z"/>
				<path style="fill:#66308D;" d="M25.81,293.595c0,0-3.66,20.667,5.068,39.743c17.175-2.544,30.127-6.359,30.127-6.359
					l19.428-3.585c0,0-6.476-26.62-8.165-32.661C46.927,294.231,25.81,293.595,25.81,293.595z"/>
			</g>
			<path style="fill:#37184D;" d="M65.228,326.585c-0.179,0-0.337-0.129-0.369-0.311l-2.534-14.641
				c-0.035-0.203,0.101-0.397,0.306-0.433c0.202-0.036,0.398,0.102,0.434,0.306l2.534,14.641c0.035,0.203-0.102,0.398-0.306,0.433
				C65.271,326.583,65.249,326.585,65.228,326.585z"/>
			<path style="fill:#37184D;" d="M64.101,319.265c-0.068,0-0.138-0.019-0.2-0.058c-0.175-0.111-0.227-0.343-0.117-0.518
				c3.314-5.248,5.011-10.559,5.028-10.612c0.063-0.196,0.272-0.306,0.47-0.244c0.198,0.063,0.307,0.272,0.245,0.471
				c-0.017,0.054-1.743,5.457-5.109,10.786C64.347,319.203,64.226,319.265,64.101,319.265z"/>
		</g>
		<g>
			<g>
				<path style="fill:#FAB6A4;" d="M70.199,234.028l20.873,7.312l4.394-27.732c0,0-4.292-4.548-5.473-6.021
					c-1.182-1.474,3.53-0.328,4.444-0.093c2.729-4.044,5.369-8.501,6.273-8.984c0.904-0.483,5.314,4.615,5.314,4.615
					s-2.356,12.46-4.99,13.604c2.905,13.487,7.026,32.617,4.223,40.997c-11.946,0.701-38.45-4.678-38.45-4.678L70.199,234.028z"/>
				<polygon style="fill:#C82976;" points="52.823,224.37 72.849,232.752 73.515,247.25 54.472,236.691 				"/>
			</g>
			<g>
				<path style="fill:#321D73;" d="M51.091,175.676c0,0,9.626-1.604,13.102,6.417c3.476,8.022-5.883,27.274-5.081,33.424
					c-19.252-4.813-22.461-7.22-22.461-7.22L51.091,175.676z"/>
				<path style="fill:#FFD1BF;" d="M56.439,179.865c0.568,0.974,8.557,18.54,5.704,27.809c-12.835-1.07-15.331-1.07-15.331-1.07
					l-9.27-6.417c0,0-4.278-6.418-1.783-17.113C38.256,172.378,51.447,171.309,56.439,179.865z"/>
				<polygon style="fill:#FFD1BF;" points="50.021,203.753 42.534,226.927 27.917,220.866 37.543,195.553 				"/>
				<path style="fill:#321D73;" d="M55.726,175.944c0,0,5.348,9.983-2.139,14.974c-7.487,4.991-3.565,26.74-3.565,26.74
					l-24.957-8.557c0,0-2.139-22.105,6.417-31.374C40.039,168.457,52.517,170.596,55.726,175.944z"/>
			</g>
			<path style="fill:#DC2B7C;" d="M30.881,215.277c0.338,0.106,24.236,7.645,27.871,13.795c3.66,6.194,18.301,66.542,18.301,66.542
				s-13.89,7.133-55.749,7.508c0.19,0.095,1.556-25.775,1.209-30.483c-0.59-7.996-1.008-16.013-1.062-24.032
				C21.42,243.827,20.197,211.92,30.881,215.277z"/>
			<g>
				<path style="fill:#FFD1BF;" d="M68.357,240.185c1.063,0.923,6.119,3.002,6.119,3.002c8.951-14.601,20.121-32.273,20.121-32.273
					c-3.545-4.421-3.545-4.421-3.545-4.421l0,0c0,0-0.927-2.968,2.418-0.809c2.105,0.411,3.54,0.389,3.54,0.389l6.008-8.207
					c0,0,4.862,3.849,5.395,6.326c0.534,2.477-6.161,12.848-6.161,12.848l-2.693,0.868c0,0-5.055,35.363-22.183,53.454
					c-22.452-13.309-26.369-16.785-26.369-16.785L68.357,240.185z"/>
				<path style="fill:#DC2B7C;" d="M51.211,223.429l21.097,15.04l-4.983,29.011c0,0-6.869-5.145-19.856-13.292
					c-12.988-8.147-18.307-16.794-13.971-26.08C37.834,218.823,51.211,223.429,51.211,223.429z"/>
				<path style="fill:#37184D;" d="M100.57,205.587c-0.084,0-0.168-0.028-0.237-0.084c-0.161-0.131-0.185-0.367-0.054-0.527
					l4.556-5.59c0.131-0.161,0.368-0.184,0.527-0.054c0.161,0.131,0.185,0.367,0.054,0.527l-4.556,5.59
					C100.787,205.539,100.678,205.587,100.57,205.587z"/>
				<path style="fill:#37184D;" d="M102.124,207.381c-0.074,0-0.148-0.021-0.213-0.067c-0.17-0.118-0.212-0.352-0.094-0.522
					c1.468-2.113,3.029-4.198,4.641-6.197c0.13-0.161,0.366-0.186,0.527-0.057c0.161,0.13,0.186,0.366,0.057,0.527
					c-1.6,1.985-3.15,4.055-4.608,6.154C102.359,207.325,102.242,207.381,102.124,207.381z"/>
				<path style="fill:#37184D;" d="M103.587,208.008c-0.096,0-0.193-0.037-0.266-0.111c-0.146-0.147-0.145-0.384,0.002-0.53
					c1.561-1.55,2.947-3.28,4.12-5.141c0.11-0.176,0.342-0.228,0.517-0.118c0.175,0.11,0.228,0.342,0.118,0.517
					c-1.203,1.909-2.625,3.683-4.226,5.273C103.777,207.971,103.682,208.008,103.587,208.008z"/>
				<path style="fill:#37184D;" d="M99.313,218.57c-1.19,0-2.462-0.406-3.879-1.238c-0.179-0.104-0.238-0.334-0.133-0.513
					c0.104-0.178,0.334-0.24,0.513-0.133c1.394,0.817,2.619,1.191,3.73,1.128c1.353-0.071,2.547-0.877,2.903-1.96
					c0.065-0.196,0.275-0.303,0.474-0.239c0.197,0.065,0.304,0.277,0.239,0.474c-0.451,1.37-1.921,2.387-3.577,2.474
					C99.494,218.568,99.403,218.57,99.313,218.57z"/>
				<path style="fill:#37184D;" d="M67.325,267.856c-0.079,0-0.158-0.025-0.223-0.074l-24.68-18.3
					c-0.167-0.124-0.202-0.358-0.078-0.524c0.123-0.167,0.359-0.202,0.524-0.078l24.194,17.941c0.512-2.869,2.78-15.632,4.84-28.192
					c-6.384-5.031-18.832-14.407-19.662-15.032c-0.663-0.247-8.196-2.954-13.625-0.541c-2.236,0.994-3.84,2.739-4.767,5.187
					c-0.073,0.193-0.291,0.291-0.483,0.218c-0.194-0.073-0.291-0.29-0.218-0.483c1.001-2.643,2.739-4.53,5.166-5.608
					c5.945-2.64,13.91,0.415,14.247,0.546c0.032,0.012,0.062,0.029,0.089,0.049c0.133,0.1,13.37,10.064,19.892,15.211
					c0.107,0.085,0.16,0.221,0.138,0.355c-2.337,14.268-4.958,28.871-4.984,29.017c-0.023,0.128-0.11,0.234-0.231,0.282
					C67.419,267.847,67.372,267.856,67.325,267.856z"/>
			</g>
		</g>
	</g>
	<g>
		<rect x="0.062" y="328.463" style="fill:#321D73;" width="102.895" height="10.699"/>
		<rect x="0.062" y="427.572" style="fill:#321D73;" width="102.895" height="10.699"/>
		<rect x="91.132" y="331.279" style="fill:#321D73;" width="3.379" height="96.856"/>
		<rect x="58.471" y="331.279" style="fill:#321D73;" width="3.379" height="96.856"/>
		<rect x="25.81" y="331.279" style="fill:#321D73;" width="3.379" height="96.856"/>
	</g>
	<g>
		<g>
			<g>
				<g>
					<path style="fill:#F9AD8C;" d="M219.71,196.881c0,0,0.962-10.544,6.396-26.954c5.992-18.095,11.795-31.621,11.795-31.621
						l6.023,1.004l-0.753,54.458L219.71,196.881z"/>
					<path style="fill:#F9AD8C;" d="M245.875,133.362c0.801-2.05,1.489-4.144,2.061-6.269c-0.439-0.326-1.001,0.196-1.295,0.658
						c-0.581,0.915-1.163,1.83-1.744,2.745c0.148-1.372,0.174-2.757,0.077-4.134c-0.516-0.067-0.88,0.478-1.103,0.948
						c-0.526,1.111-1.015,2.24-1.465,3.383c-0.17-1.171-0.341-2.343-0.511-3.514c-0.05-0.346-0.262-0.803-0.595-0.695
						c-0.17,0.055-0.254,0.241-0.316,0.408c-0.482,1.309-0.763,2.691-0.831,4.085c-0.346-1.368-0.691-2.737-1.037-4.105
						c-0.433-0.174-0.798,0.369-0.925,0.818c-0.367,1.295-0.446,2.672-0.23,4c0.05,0.306,0.115,0.615,0.089,0.924
						c-0.051,0.603-0.436,1.115-0.768,1.62c-0.496,0.752-0.912,1.586-1,2.482c-0.316,3.202,4.895,4.391,7.102,2.933
						c0.961-0.635,1.457-1.934,2.172-2.801c1.023-1.24,2.887-2.224,3.477-3.692C248.733,133.02,246.028,132.986,245.875,133.362z"/>
				</g>
				<polygon style="fill:#F9AD8C;" points="219.71,196.881 223.262,208.518 247.116,201.151 242.599,191.249 				"/>
			</g>
			<path style="fill:#37184D;" d="M235.477,194.252c-0.175,0-0.331-0.123-0.367-0.301c-0.041-0.203,0.091-0.401,0.294-0.441
				l2.813-0.563l-8.918,0.366c-0.212,0.016-0.381-0.152-0.39-0.359c-0.009-0.207,0.152-0.382,0.359-0.39l13.703-0.563
				c0.209-0.01,0.365,0.136,0.388,0.33c0.023,0.194-0.107,0.373-0.299,0.412l-7.508,1.501
				C235.527,194.25,235.502,194.252,235.477,194.252z"/>
			<path style="fill:#37184D;" d="M239.786,137.232c-0.177,0-0.393-0.178-0.43-0.351c-0.041-0.191,0.034-0.448,0.253-0.546
				c0.026-0.012,0.055-0.019,0.085-0.024c0.403-1.152,1.273-2.127,2.496-2.822c0.81-0.461,1.68-0.76,2.554-1.01
				c-1.612-0.577-3.375-0.744-5.063-0.467c-0.203,0.036-0.396-0.104-0.431-0.309c-0.033-0.204,0.105-0.397,0.309-0.431
				c2.19-0.358,4.499-0.023,6.498,0.947c0.141,0.068,0.225,0.218,0.209,0.374c-0.015,0.156-0.126,0.286-0.278,0.326
				c-1.169,0.307-2.378,0.624-3.429,1.222c-1.138,0.646-1.919,1.553-2.199,2.552C240.232,137.162,239.946,137.232,239.786,137.232z"
				/>
		</g>
		<g>
			<polygon style="fill:#F9AD8C;" points="262.132,404.109 267.388,429.824 240.358,428.135 250.494,420.627 246.74,402.607 			"/>
			<polygon style="fill:#F9AD8C;" points="294.042,406.361 300.424,420.627 297.046,427.76 316.192,429.261 307.182,402.982 			"/>
			<g>
				<path style="fill:#FFBD37;" d="M307.932,403.469c0,0-14.201-81.65-22.525-103.725c-35.826-10.857-57.438-3.379-57.438-3.379
					s4.691,64.763,19.166,111.446c12.666-1.447,17.009-2.171,17.009-2.171l-2.012-73.611c0,0,2.001,3.263,5.187,11.52
					c8.332,21.592,23.682,61.021,25.776,63.9c7.238,1.809,14.837-2.895,14.837-2.895"/>
				<path style="fill:#37184D;" d="M267.388,344.23c-0.153,0-0.298-0.095-0.353-0.248c-1.663-4.618-15.61-32.713-15.751-32.996
					c-0.092-0.186-0.017-0.411,0.169-0.503c0.185-0.09,0.411-0.017,0.503,0.169c0.575,1.158,14.107,28.417,15.784,33.076
					c0.07,0.194-0.03,0.409-0.226,0.479C267.473,344.223,267.43,344.23,267.388,344.23z"/>
				<path style="fill:#37184D;" d="M258.002,324.145c-0.051,0-0.103-0.011-0.152-0.032c-6.759-3.004-11.353-8.495-11.399-8.55
					c-0.132-0.16-0.109-0.396,0.05-0.528c0.159-0.131,0.396-0.111,0.528,0.05c0.044,0.054,4.533,5.413,11.126,8.343
					c0.189,0.084,0.274,0.306,0.19,0.495C258.283,324.062,258.146,324.145,258.002,324.145z"/>
			</g>
		</g>
		<g>
			<polygon style="fill:#F9AD8C;" points="306.806,245.309 316.942,277.219 324.075,324.897 316.942,325.647 300.8,284.727 
				287.285,258.073 296.67,228.04 			"/>
			<path style="fill:#F9AD8C;" d="M314.027,329.423c-0.006,0.637,1.012,0.707,1.474,0.269c0.462-0.439,0.672-1.115,1.197-1.476
				c0.575-0.396,1.382-0.286,1.979,0.074c0.598,0.361,1.036,0.928,1.471,1.473c1.655,2.073,3.474,4.015,5.434,5.803
				c0.544-0.247,0.401-1.054,0.147-1.594c-0.69-1.467-1.564-2.848-2.592-4.101c1.925,1.455,3.996,2.968,6.402,3.148
				c-1.169-1.334-2.51-2.518-3.98-3.512c1.69,0.292,3.356,0.728,4.973,1.3c-0.539-1.408-1.766-2.533-3.215-2.949
				c1.159-0.112,2.331-0.076,3.481,0.106c0.175-0.366-0.029-0.822-0.353-1.064c-0.325-0.242-0.739-0.323-1.137-0.396
				c-0.689-0.128-1.378-0.255-2.068-0.382c-0.667-0.124-1.348-0.251-1.943-0.576c-1.001-0.546-1.667-1.657-1.676-2.797
				c0.003,0.391-5.086,1.383-5.842,1.978C316.902,325.415,314.036,328.502,314.027,329.423z"/>
		</g>
		<g>
			<path style="fill:#66308D;" d="M312.813,261.452c0,0-9.385-29.282-20.272-38.667c-0.001,0.025-0.003,0.049-0.004,0.075
				c-2.983-2.918-8.025-4.694-13.226-5.771c-6.543-1.57-12.691-0.008-19.254-0.503c-0.698-0.053-1.423-0.113-2.028-0.465
				c-0.503-0.293-0.876-0.76-1.236-1.218c-0.978-1.247-12.275-17.431-11.183-17.645c-0.674,0.132-25.526,3.519-25.526,3.519
				s-0.502,7.027,4.015,20.328c4.517,13.301,8.533,21.583,8.533,21.583l-7.529,55.379l63.911,5.019c0,0,0.483-16.809,1.479-34.077
				c1.431,2.427,3.924,5.959,3.924,5.959L312.813,261.452z"/>
			<path style="fill:#37184D;" d="M290.476,270.836c-0.008,0-0.016,0-0.023-0.001c-0.207-0.013-0.363-0.19-0.351-0.397l1.407-22.524
				c0.013-0.207,0.189-0.357,0.397-0.351c0.207,0.013,0.363,0.191,0.351,0.398l-1.407,22.524
				C290.838,270.683,290.673,270.836,290.476,270.836z"/>
		</g>
		<g>
			<path style="fill:#F9AD8C;" d="M260.832,187.637c0,0-6.995,10.352-5.602,22.617c1.07,6.132,2.336,4.331,2.336,4.331l15.561-0.507
				l1.554-4.645c0,0,3.45,2.082,5.083-1.216c1.634-3.298,0.564-9.43-3.618-7.02c2.506-10.335,4.142-12.885,4.142-12.885
				L260.832,187.637z"/>
			<path style="fill:#37184D;" d="M276.529,208.674c-0.16,0-0.322-0.033-0.474-0.099c-0.33-0.143-0.547-0.425-0.582-0.752
				c-0.022-0.206,0.128-0.391,0.333-0.413c0.22-0.024,0.392,0.128,0.413,0.333c0.008,0.077,0.089,0.124,0.136,0.144
				c0.126,0.054,0.28,0.046,0.368-0.02c0.241-0.181,0.261-0.577,0.157-0.858c-0.133-0.36-0.434-0.667-0.756-0.975
				c-0.103-0.098-0.142-0.246-0.1-0.381c0.042-0.136,0.157-0.236,0.297-0.26l2.064-0.343c0.189-0.028,0.369,0.083,0.422,0.267
				c0.053,0.183-0.041,0.376-0.217,0.45l-0.357,0.148c-0.113,0.046-0.237,0.034-0.335-0.024l-0.753,0.125
				c0.182,0.219,0.336,0.456,0.438,0.733c0.24,0.65,0.071,1.356-0.411,1.718C276.992,208.604,276.762,208.674,276.529,208.674z"/>
			<path style="fill:#321D73;" d="M284.783,202.196c2.012-0.615,3.807-2.16,4.355-4.191c0.548-2.031-0.404-4.467-2.34-5.288
				c1.15-1.449,1.341-3.592,0.467-5.222c-0.874-1.631-2.765-2.656-4.608-2.5c0.897-2.135-0.622-5.33-3.109-5.438
				c-0.793-0.034-1.595,0.297-2.132,0.882c0.279-1.586-0.179-3.254-1.736-3.976c-0.89-0.413-2.656-0.773-3.652-0.455
				c-0.818,0.261-2.512,2.202-2.129,3.134c-0.544-1.323-1.611-2.475-3.121-2.564c-0.671-0.039-1.384-0.101-1.987,0.197
				c-1.825,0.902-2.208,1.696-2.303,3.186c-0.016,0.249,0.058,0.72-0.069,0.934c-1.342-0.611-2.866-0.817-4.32-0.566
				c-0.799,0.138-1.597,0.422-2.193,0.972c-1.668,1.538-1.054,4.358,0.234,6.226c-1.627-0.197-3.325,0.801-3.945,2.318
				c-0.62,1.517-0.106,3.419,1.194,4.417c-1.616,0.55-3.174,1.716-3.539,3.383c-0.365,1.668,1.047,3.664,2.729,3.374
				c-1.129,0.337-1.434,2.003-0.681,2.909c0.753,0.906,2.154,1.052,3.247,0.611c0.798-6.051,1.447-8.222,2.901-11.654
				c0.151-0.356,0.368-1.004,0.553-1.342c1.064-0.486,1.77-1.665,1.692-2.833c0.044-0.069,0.087-0.138,0.131-0.207
				c1.502,0.929,3.686,0.57,4.773-0.831c1.234,1.385,3.214,2.06,5.037,1.718c-0.204,1.393-0.154,2.884,0.534,4.112
				c0.688,1.228,2.143,2.1,3.512,1.771c-1.363,1.806-0.084,4.889,2.157,5.201c-0.846,0.361-1.012,1.604-0.488,2.361
				c0.523,0.756,1.491,1.08,2.409,1.141c-1.243,0.763-1.251,2.766-0.22,3.798c1.031,1.032,2.716,1.167,4.09,0.678
				C284.676,207.579,286.255,204.341,284.783,202.196z"/>
			<path style="fill:#F9AD8C;" d="M274.626,208.723c-0.586-0.418,1.171,7.11,1.171,7.11l8.109,2.446
				c-1.69,8.449-13.91,24.607-23.651,16.143c-2.279-1.98-3.906-5.675-4.505-8.635c-0.455-2.25-0.046-4.925,0.486-7.125
				c0.162-0.667,0.457-2.504,1.181-2.833c0.878-0.399,4.199,0.01,5.184-0.271c-0.09-1.056-0.015-0.52-0.105-1.576
				c-0.01-0.114-0.018-0.235,0.036-0.336c0.066-0.123,0.206-0.184,0.335-0.235c1.883-0.749,3.776-1.428,5.654-2.195
				C269.223,210.929,274.186,208.381,274.626,208.723z"/>
			<path style="fill:#37184D;" d="M256.792,215.277c-0.196,0-0.36-0.151-0.374-0.35c-0.015-0.207,0.142-0.385,0.349-0.399
				c3.642-0.248,13.293-0.94,14.19-1.165c0.675-0.169,2.397-2.516,3.404-4.129c0.11-0.176,0.343-0.229,0.517-0.119
				c0.176,0.109,0.229,0.341,0.12,0.517c-0.433,0.691-2.647,4.156-3.859,4.459c-1.145,0.287-13.784,1.148-14.321,1.185
				C256.809,215.277,256.8,215.277,256.792,215.277z"/>
			<path style="fill:#37184D;" d="M263.102,218.877c-0.184,0-0.344-0.134-0.371-0.32l-0.58-3.94
				c-0.03-0.205,0.111-0.395,0.316-0.426c0.209-0.032,0.396,0.112,0.426,0.316l0.58,3.939c0.03,0.205-0.111,0.395-0.316,0.426
				C263.138,218.876,263.12,218.877,263.102,218.877z"/>
			<path style="fill:#FFBD37;" d="M259.504,210.489c0,0-34.069,3.097-40.545-1.126c-6.476-4.223-5.913-7.039-3.942-6.194
				c1.971,0.845,4.663,4.223,8.244,5.35c3.581,1.126,35.867,0.188,35.867,0.188L259.504,210.489z"/>
		</g>
		<path style="fill:#F9AD8C;" d="M257.417,215.829c1.242,0.151,4.148,0.36,5.184,0.574"/>
	</g>
	<g>
		<g>
			<path style="fill:#F5C5B4;" d="M399.639,226.809l2.73,4.219c0,0,0.496,3.226-0.496,5.708c1.489,6.7,0,9.926,0,9.926
				c4.219,12.159,14.889,32.26,15.634,34.99c0.745,5.211,0.04,12.904-6.948,12.904c-1.985,0-10.422-10.671-11.663-15.385
				c-2.397-9.107-5.211-33.253-5.211-33.253l-3.226-13.648c0,0,3.474-0.248,4.963,2.978
				C397.654,232.517,399.639,226.809,399.639,226.809z"/>
			<polygon style="fill:#F5C5B4;" points="409.814,294.307 381.028,271.973 390.954,250.632 411.551,274.206 			"/>
			<path style="fill:#37184D;" d="M398.895,279.544c-0.115,0-0.23-0.054-0.303-0.153c-2.178-2.981-3.507-18.921-3.563-19.599
				c-0.017-0.206,0.137-0.387,0.344-0.404c0.206-0.024,0.387,0.138,0.404,0.344c0.013,0.163,1.365,16.404,3.42,19.216
				c0.122,0.168,0.086,0.402-0.081,0.524C399.049,279.521,398.972,279.544,398.895,279.544z"/>
		</g>
		<g>
			<path style="fill:#FFD1BF;" d="M329.329,302.712c-0.335,1.313,10.419,61.227,10.419,61.227l-4.733,66.331l14.382,0.219
				l-6.689-10.502c0,0,16.389-36.758,21.74-61.7c-3.345-37.195-7.024-59.95-7.024-59.95L329.329,302.712z"/>
			<path style="fill:#FFD1BF;" d="M354.439,303.934c-0.335,1.313,16.281,61.977,16.281,61.977l-6.484,65.581l14.382,0.219
				l-6.689-10.502c0,0,15.964-32.889,21.316-57.832c-3.345-37.195-10.711-63.819-10.711-63.819L354.439,303.934z"/>
			<g>
				<path style="fill:#DC2B7C;" d="M331.319,297.266c-0.047,0.122-0.093,0.244-0.139,0.366c-4.212,11.403-2.184,23.516-0.025,35.093
					c0.459,2.46,4.52,24.684,6.904,24.739c26.754,0.611,26.754,0.611,26.754,0.611s-0.761-16.599-0.382-14.97
					c0.379,1.629,3.935,16.992,3.935,16.992l24.878-3.759c-1.518-19.547-7.59-55.362-11.005-61.471
					c-9.433-0.929-18.896-1.603-28.372-1.866c-3.503-0.098-7.008-0.142-10.512-0.105c-2.846,0.03-7.037-1.256-9.411,0.463
					C332.655,294.293,331.898,295.771,331.319,297.266z"/>
				<path style="fill:#37184D;" d="M364.814,358.449c-0.2,0-0.366-0.158-0.375-0.359c-0.004-0.094-0.382-9.411-0.382-14.986
					c0-3.377,3.607-21.813,3.761-22.597c0.04-0.202,0.232-0.337,0.44-0.296c0.203,0.04,0.336,0.237,0.296,0.44
					c-0.038,0.191-3.747,19.148-3.747,22.452c0,5.56,0.378,14.862,0.382,14.955c0.008,0.207-0.152,0.382-0.359,0.391
					C364.824,358.449,364.819,358.449,364.814,358.449z"/>
				<path style="fill:#37184D;" d="M365.371,335.784c-0.109,0-0.219-0.048-0.293-0.141c-0.129-0.162-0.103-0.398,0.059-0.527
					c5.536-4.43,10.597-10.4,10.647-10.461c0.133-0.159,0.371-0.177,0.528-0.044c0.158,0.133,0.178,0.37,0.044,0.528
					c-0.051,0.06-5.156,6.085-10.751,10.563C365.536,335.756,365.453,335.784,365.371,335.784z"/>
			</g>
		</g>
		<g>
			<path style="fill:#FFBD37;" d="M390.871,246.165c0,0-7.61-19.191-23.492-19.521c-11.58-0.331-24.91,0.794-31.433,25.477
				c-6.334,23.972-12.81,51.565-12.81,51.565l64.196,7.602C387.332,311.288,390.871,252.121,390.871,246.165z"/>
			<path style="fill:#37184D;" d="M385.08,265.769c-0.192,0-0.356-0.146-0.374-0.342l-1.126-12.765
				c-0.018-0.207,0.135-0.389,0.341-0.407c0.222-0.015,0.389,0.135,0.407,0.341l1.126,12.765c0.017,0.207-0.135,0.389-0.341,0.407
				C385.101,265.769,385.09,265.769,385.08,265.769z"/>
			<path style="fill:#FFD1BF;" d="M370.605,228.298c0,0,4.963,1.489,5.211,2.73c0.248,1.241-1.985,10.671-6.7,15.137
				c-4.715,4.467-14.889-11.167-15.137-16.626C358.198,227.057,368.372,227.057,370.605,228.298z"/>
			<polygon style="fill:#FFD1BF;" points="361.42,213.055 355.664,230.974 368.887,236.202 373.193,218.366 			"/>
			<g>
				<path style="fill:#FFD1BF;" d="M361.121,196.997h20.603c0,0,0.307,14.146-1.23,20.911c-1.538,6.765-8.918,6.765-8.918,6.765
					l-11.993-5.535l-0.307-4.92c0,0-3.383,0.615-3.998-3.075c-0.615-3.69,3.383-5.843,4.613-4.305
					C359.584,201.609,361.121,196.997,361.121,196.997z"/>
				<path style="fill:#321D73;" d="M358.367,206.425c0,0,1.745,1.745,2.094,3.489c2.268-2.966,2.791-7.676,2.093-10.118
					c3.664,0.349,7.502,1.396,7.502,1.396l-1.919-2.442c5.059,0.174,7.676,2.617,7.676,2.617c0.349-1.396-1.396-2.966-0.523-2.966
					c4.013,0.523,5.583,3.315,5.583,3.315v-3.663c2.268,2.791,3.14,4.012,3.14,4.012c1.047-4.885,0.872-8.374-4.536-13.084
					c-5.408-4.71-15.875-4.361-19.19,2.093c-8.548-1.221-8.723,10.642-5.234,18.318
					C356.274,206.251,358.367,206.425,358.367,206.425z"/>
				<path style="fill:#37184D;" d="M370.56,224.62c-2.188,0-4.428-0.52-6.459-1.552c-1.374-0.698-2.396-1.49-3.124-2.421
					c-1.326-1.694-1.714-3.874-2.057-5.797c-0.036-0.204,0.1-0.399,0.304-0.435c0.201-0.035,0.398,0.1,0.434,0.303
					c0.327,1.837,0.697,3.919,1.909,5.467c0.659,0.843,1.599,1.567,2.873,2.214c3.631,1.847,7.967,1.964,11.313,0.308
					c0.182-0.09,0.409-0.016,0.502,0.169c0.092,0.186,0.016,0.411-0.17,0.502C374.413,224.208,372.507,224.62,370.56,224.62z"/>
				<path style="fill:#37184D;" d="M359.349,212.916c-0.436,0-0.871-0.222-1.171-0.604c-0.341-0.434-0.438-0.99-0.252-1.45
					c0.085-0.213,0.215-0.393,0.329-0.551c0.107-0.149,0.21-0.291,0.256-0.432c0.085-0.26-0.036-0.586-0.27-0.727
					c-0.234-0.143-0.58-0.098-0.771,0.1c-0.145,0.148-0.382,0.152-0.53,0.008c-0.15-0.144-0.152-0.381-0.009-0.53
					c0.435-0.447,1.163-0.54,1.696-0.22c0.534,0.322,0.79,1.011,0.596,1.604c-0.082,0.252-0.23,0.457-0.36,0.638
					c-0.098,0.135-0.19,0.264-0.242,0.392c-0.102,0.254,0.009,0.532,0.146,0.708c0.138,0.175,0.375,0.347,0.652,0.312
					c0.227-0.03,0.396,0.115,0.424,0.319c0.029,0.205-0.113,0.395-0.318,0.423C359.467,212.912,359.408,212.916,359.349,212.916z"/>
				<path style="fill:#37184D;" d="M369.652,231.93c-0.028,0-0.057-0.003-0.085-0.01c-0.202-0.047-0.327-0.249-0.28-0.451
					c0.556-2.376,1.262-4.737,2.101-7.02c0.071-0.195,0.289-0.294,0.48-0.223c0.195,0.072,0.295,0.287,0.223,0.481
					c-0.828,2.254-1.526,4.586-2.074,6.932C369.977,231.813,369.823,231.93,369.652,231.93z"/>
			</g>
		</g>
		<g>
			<path style="fill:#FFD1BF;" d="M368.124,258.076l6.948,16.378l15.799-28.289c0,0-0.414-8.189-0.414-10.919v-2.978
				c0,0,1.985,0,2.73,2.978c1.737-5.211,4.715-8.437,4.715-8.437c3.226,2.481,4.467,4.219,4.467,4.219l-2.233,6.204
				c0.993,6.7-3.226,11.167-3.97,11.415c-0.496,17.619-5.956,51.864-10.671,55.09c-15.385-2.978-30.275-22.334-33.501-28.041
				C348.768,269.988,363.905,258.821,368.124,258.076z"/>
			<path style="fill:#FFBD37;" d="M349.761,277.681l21.093-20.1l-16.37-29.165c0,0-8.445,2.612-15.145,16.509
				C332.205,259.72,349.761,277.681,349.761,277.681z"/>
			<path style="fill:#37184D;" d="M351.994,276.071c-0.099,0-0.197-0.038-0.271-0.115c-0.144-0.149-0.139-0.387,0.011-0.53
				l18.651-17.915l-14.913-26.713c-0.102-0.181-0.036-0.409,0.145-0.51c0.178-0.1,0.408-0.037,0.51,0.145l15.055,26.966
				c0.083,0.148,0.056,0.335-0.067,0.453l-18.86,18.115C352.181,276.035,352.087,276.071,351.994,276.071z"/>
			<path style="fill:#37184D;" d="M374.944,288.481c-0.001,0-0.002,0-0.004,0c-0.205-0.002-0.371-0.169-0.371-0.375
				c0-0.001,0-0.002,0-0.004l0.128-13.651c0.002-0.205,0.17-0.371,0.375-0.371c0.001,0,0.002,0,0.004,0
				c0.205,0.002,0.371,0.17,0.371,0.375c0,0.001,0,0.002,0,0.004l-0.128,13.651C375.317,288.315,375.149,288.481,374.944,288.481z"
				/>
			<path style="fill:#37184D;" d="M377.383,285.478c-0.173,0-0.328-0.12-0.366-0.296l-2.311-10.648
				c-0.044-0.202,0.084-0.401,0.287-0.445c0.201-0.045,0.401,0.085,0.445,0.287l2.312,10.648c0.044,0.202-0.084,0.401-0.287,0.445
				C377.436,285.475,377.41,285.478,377.383,285.478z"/>
			<path style="fill:#37184D;" d="M392.212,284.163c-0.026,0-0.054-0.003-0.081-0.009c-0.202-0.045-0.33-0.245-0.285-0.447
				c1.9-8.55,3.569-28.29,3.945-35.081c0.006-0.116,0.065-0.223,0.162-0.289c4.465-3.069,3.815-10.993,3.809-11.073
				c-0.005-0.054,0.002-0.109,0.021-0.16l2.233-6.204c0.069-0.195,0.283-0.298,0.479-0.226c0.195,0.07,0.296,0.285,0.226,0.48
				l-2.206,6.128c0.07,0.924,0.478,8.328-3.985,11.566c-0.396,6.973-2.059,26.504-3.951,35.021
				C392.54,284.044,392.384,284.163,392.212,284.163z"/>
		</g>
	</g>
	<g>
		<rect x="150.822" y="328.463" style="fill:#321D73;" width="298.453" height="10.699"/>
		<rect x="150.822" y="427.572" style="fill:#321D73;" width="298.453" height="10.699"/>
		<rect x="439.702" y="335.784" style="fill:#321D73;" width="3.379" height="96.856"/>
		<rect x="404.789" y="335.22" style="fill:#321D73;" width="3.379" height="96.857"/>
		<rect x="369.876" y="334.657" style="fill:#321D73;" width="3.379" height="96.857"/>
		<rect x="334.962" y="334.094" style="fill:#321D73;" width="3.379" height="96.856"/>
		<rect x="300.049" y="333.531" style="fill:#321D73;" width="3.379" height="96.856"/>
		<rect x="265.135" y="332.968" style="fill:#321D73;" width="3.379" height="96.856"/>
		<rect x="230.222" y="332.405" style="fill:#321D73;" width="3.379" height="96.856"/>
		<rect x="195.309" y="331.842" style="fill:#321D73;" width="3.379" height="96.857"/>
		<rect x="160.395" y="331.279" style="fill:#321D73;" width="3.379" height="96.856"/>
	</g>
</g>
</svg>
